HIERARCHY
ROOT Hips
{
 OFFSET 0.000000 0.000000 0.000000
 CHANNELS 6 Xposition Yposition Zposition Yrotation Xrotation Zrotation
 JOINT Chest
 {
  OFFSET 0.000000 10.483295 0.018402
  CHANNELS 3 Yrotation Xrotation Zrotation
  JOINT Chest2
  {
   OFFSET 0.000000 12.196575 -0.033437
   CHANNELS 3 Yrotation Xrotation Zrotation
   JOINT Chest3
   {
    OFFSET 0.000000 11.021500 0.000000
    CHANNELS 3 Yrotation Xrotation Zrotation
    JOINT Chest4
    {
     OFFSET 0.000000 11.021400 0.000000
     CHANNELS 3 Yrotation Xrotation Zrotation
     JOINT Neck
     {
      OFFSET 0.000000 15.252000 0.000000
      CHANNELS 3 Yrotation Xrotation Zrotation
      JOINT Head
      {
       OFFSET 0.000000 10.245098 -0.079700
       CHANNELS 3 Yrotation Xrotation Zrotation
       End Site
       {
        OFFSET 0.000000 19.813991 -0.041600
       }
      }
     }
     JOINT RightCollar
     {
      OFFSET -3.058700 8.489100 0.000000
      CHANNELS 3 Yrotation Xrotation Zrotation
      JOINT RightShoulder
      {
       OFFSET -13.730400 0.000000 0.000000
       CHANNELS 3 Yrotation Xrotation Zrotation
       JOINT RightElbow
       {
        OFFSET -30.364119 -0.000000 0.000000
        CHANNELS 3 Yrotation Xrotation Zrotation
        JOINT RightWrist
        {
         OFFSET -24.952755 0.000000 0.004743
         CHANNELS 3 Yrotation Xrotation Zrotation
         End Site
         {
          OFFSET -18.738600 0.000000 0.000000
         }
        }
       }
      }
     }
     JOINT LeftCollar
     {
      OFFSET 3.058700 8.489100 0.000000
      CHANNELS 3 Yrotation Xrotation Zrotation
      JOINT LeftShoulder
      {
       OFFSET 13.730400 0.000000 0.000000
       CHANNELS 3 Yrotation Xrotation Zrotation
       JOINT LeftElbow
       {
        OFFSET 30.364119 -0.000000 0.000000
        CHANNELS 3 Yrotation Xrotation Zrotation
        JOINT LeftWrist
        {
         OFFSET 24.952755 -0.000000 0.004743
         CHANNELS 3 Yrotation Xrotation Zrotation
         End Site
         {
          OFFSET 18.738600 -0.000000 -0.000000
         }
        }
       }
      }
     }
    }
   }
  }
 }
 JOINT RightHip
 {
  OFFSET -8.366805 -0.090331 -0.009218
  CHANNELS 3 Yrotation Xrotation Zrotation
  JOINT RightKnee
  {
   OFFSET 0.000000 -46.515684 0.008890
   CHANNELS 3 Yrotation Xrotation Zrotation
   JOINT RightAnkle
   {
    OFFSET 0.000000 -42.864747 0.048728
    CHANNELS 3 Yrotation Xrotation Zrotation
    JOINT RightToe
    {
     OFFSET 0.000000 -10.045100 15.254100
     CHANNELS 3 Yrotation Xrotation Zrotation
     End Site
     {
      OFFSET 0.000000 -1.537700 6.138800
     }
    }
   }
  }
 }
 JOINT LeftHip
 {
  OFFSET 8.366805 -0.090331 -0.009218
  CHANNELS 3 Yrotation Xrotation Zrotation
  JOINT LeftKnee
  {
   OFFSET 0.000000 -46.515684 0.008890
   CHANNELS 3 Yrotation Xrotation Zrotation
   JOINT LeftAnkle
   {
    OFFSET 0.000000 -42.864747 0.048728
    CHANNELS 3 Yrotation Xrotation Zrotation
    JOINT LeftToe
    {
     OFFSET 0.000000 -10.045100 15.254100
     CHANNELS 3 Yrotation Xrotation Zrotation
     End Site
     {
      OFFSET 0.000000 -1.537700 6.138800
     }
    }
   }
  }
 }
}
MOTION
Frames: 7
Frame Time: 0.004167
231.900510 97.749945 -167.131362 -13.469680 -13.582347 4.013144 7.471660 9.845159 -2.108085 3.280732 4.371482 -1.041246 3.280693 4.371280 -1.041152 2.466858 3.273172 -0.803996 -6.795867 19.731816 -1.348388 -11.987050 0.595204 -0.364747 -6.113649 -2.504297 2.365648 9.344267 9.107190 78.843805 25.282886 17.905408 10.822315 -12.668171 16.175742 -18.745532 -3.055276 -3.855606 -4.828490 1.652090 -0.861708 -78.835887 -27.645052 -1.847546 -4.491026 3.903459 20.446172 24.134973 -1.551627 -3.871867 -0.079728 -8.487242 64.784073 -24.897452 1.334622 20.737527 6.481565 -0.509297 1.191413 -0.877527 16.676248 -4.453018 -6.443674 0.082861 22.776676 5.968111 15.528145 -3.808859 -0.327088 0.052544 -0.215102 0.091536
231.956339 97.837826 -166.708416 -13.378037 -13.611618 4.039318 7.388576 9.872035 -2.139889 3.251767 4.371507 -1.040983 3.251847 4.371406 -1.040954 2.445157 3.273126 -0.803660 -6.824279 19.752976 -1.306014 -12.051451 0.639617 -0.280796 -6.161149 -2.504341 2.341078 9.223428 9.242198 78.858298 25.322661 18.005630 10.894011 -12.668572 16.149822 -18.770343 -3.052590 -3.867745 -4.815909 1.633434 -0.926769 -78.758529 -28.263285 -2.044223 -4.729140 3.841457 20.412020 24.215948 -1.056383 -4.446753 -0.134126 -8.754092 64.929116 -24.531797 1.452769 19.745051 6.756213 -0.514267 1.253926 -0.902748 16.598079 -4.020234 -6.454269 0.100946 22.508884 5.898281 15.420083 -3.923316 -0.306628 0.033789 -0.175231 0.089205
232.012246 97.926005 -166.285452 -13.273862 -13.642394 4.052937 7.297466 9.898070 -2.161611 3.223051 4.371291 -1.041746 3.223137 4.371180 -1.041556 2.423703 3.273076 -0.804035 -6.852888 19.774362 -1.261485 -12.116269 0.684821 -0.192961 -6.214878 -2.505940 2.317788 9.120046 9.379309 78.873384 25.361162 18.060114 10.958562 -12.668381 16.098964 -18.823952 -3.054113 -3.877416 -4.802336 1.615488 -0.991173 -78.670253 -28.881408 -2.241137 -4.974111 3.779388 20.380990 24.285766 -0.614154 -4.998610 -0.176277 -9.076624 64.995069 -24.256937 1.594174 18.790031 7.021733 -0.499629 1.320203 -0.911893 16.548136 -3.582042 -6.467409 0.042496 22.237148 5.825272 15.376088 -4.033027 -0.292560 0.011683 -0.136770 0.087748
232.062295 98.014764 -165.860992 -13.166020 -13.675621 4.048372 7.207879 9.924784 -2.166417 3.195051 4.370265 -1.042602 3.195149 4.370256 -1.042604 2.402660 3.272426 -0.804438 -6.881199 19.796180 -1.215562 -12.181152 0.731362 -0.102468 -6.269902 -2.507313 2.297776 9.028085 9.517382 78.885120 25.398509 18.068932 11.017099 -12.666817 16.032496 -18.902439 -3.059611 -3.882314 -4.788069 1.597996 -1.056995 -78.573186 -29.498475 -2.436524 -5.224914 3.715365 20.351908 24.346017 -0.238613 -5.525169 -0.192941 -9.413043 64.986104 -24.051842 1.767222 17.865346 7.242289 -0.461134 1.392912 -0.892520 16.536716 -3.136512 -6.463905 -0.074367 21.958290 5.742498 15.500662 -4.140631 -0.301516 0.003943 -0.098465 0.097717
232.114983 98.104424 -165.431402 -13.057095 -13.713164 4.035655 7.124352 9.960322 -2.161267 3.166985 4.368834 -1.043605 3.167099 4.368828 -1.043681 2.381567 3.271265 -0.805005 -6.909408 19.817869 -1.169531 -12.246294 0.777008 -0.012038 -6.326107 -2.509552 2.279342 8.943786 9.657092 78.896004 25.434182 18.040499 11.068047 -12.664041 15.956457 -18.998247 -3.067587 -3.885157 -4.773516 1.579556 -1.123735 -78.467282 -30.115325 -2.630358 -5.481477 3.650569 20.325951 24.398706 0.090391 -6.022712 -0.195308 -9.760567 64.905708 -23.892019 1.928991 16.976875 7.465541 -0.418095 1.468746 -0.873288 16.551389 -2.683335 -6.443066 -0.226730 21.682212 5.651516 15.564395 -4.254205 -0.305675 -0.015156 -0.059878 0.100123
232.166951 98.193586 -165.003889 -12.935577 -13.741950 4.014219 7.029098 9.983859 -2.153125 3.139903 4.367235 -1.044983 3.139938 4.367220 -1.045028 2.361337 3.270284 -0.805863 -6.937674 19.838611 -1.122200 -12.311346 0.821964 0.080749 -6.387816 -2.512907 2.262218 8.867125 9.793208 78.908233 25.472748 17.983014 11.114341 -12.655868 15.869235 -19.113778 -3.080456 -3.887674 -4.760070 1.562398 -1.193345 -78.353049 -30.723896 -2.823605 -5.738813 3.585425 20.301616 24.440595 0.341639 -6.503535 -0.182948 -10.081831 64.758361 -23.762773 2.106789 16.109918 7.649315 -0.364531 1.552544 -0.834999 16.585408 -2.237910 -6.416304 -0.362720 21.395300 5.579226 15.533198 -4.356530 -0.316283 -0.027223 -0.026131 0.106967
232.216657 98.283596 -164.576344 -12.813846 -13.765124 3.989941 6.936782 10.002454 -2.141786 3.113132 4.365446 -1.046376 3.113083 4.365542 -1.046503 2.341317 3.268992 -0.806769 -6.965818 19.858968 -1.074965 -12.376235 0.865666 0.173364 -6.446201 -2.516503 2.246913 8.796613 9.931156 78.921563 25.514713 17.896674 11.151082 -12.645296 15.773147 -19.243388 -3.096733 -3.890319 -4.748902 1.546643 -1.262282 -78.231594 -31.326979 -3.014863 -5.997238 3.518656 20.278854 24.472703 0.542869 -6.967568 -0.161179 -10.394101 64.550440 -23.661070 2.266773 15.275970 7.845549 -0.320388 1.636388 -0.807700 16.641896 -1.799269 -6.383467 -0.473876 21.105926 5.520981 15.437896 -4.454427 -0.332089 -0.033672 0.003555 0.116579
